<svg xmlns="http://www.w3.org/2000/svg" viewBox="0 0 300 300"><defs><linearGradient id="g" x1="0" y1="0" x2="1" y2="1"><stop stop-color="#fff1a8"/><stop offset=".5" stop-color="#d9a62a"/><stop offset="1" stop-color="#704600"/></linearGradient><linearGradient id="f" x1="0" y1="0" x2="0" y2="1"><stop stop-color="#eef5ff"/><stop offset="1" stop-color="#9ca9b8"/></linearGradient></defs><circle cx="150" cy="150" r="138" fill="#090611" stroke="url(#g)" stroke-width="8"/><path d="M70 120Q70 55 150 48Q230 55 230 120V190Q220 245 150 252Q80 245 70 190Z" fill="url(#f)" stroke="#4c5968" stroke-width="6"/><path d="M82 108Q95 58 150 55Q205 58 218 108Q190 88 150 91Q110 88 82 108Z" fill="#e4b632"/><path d="M101 145Q115 124 132 145M168 145Q185 124 199 145" fill="none" stroke="#6d3e00" stroke-width="10" stroke-linecap="round"/><circle cx="116" cy="145" r="8" fill="#5de7ff"/><circle cx="184" cy="145" r="8" fill="#5de7ff"/><path d="M120 190Q150 211 180 190" fill="none" stroke="#7a4b10" stroke-width="8" stroke-linecap="round"/><circle cx="150" cy="112" r="8" fill="#ff6680"/><path d="M150 40V22" stroke="#d9a62a" stroke-width="7"/><circle cx="150" cy="15" r="9" fill="#54ddff"/><path d="M52 155H35M248 155h17" stroke="#d9a62a" stroke-width="7" stroke-linecap="round"/><text x="150" y="278" text-anchor="middle" font-family="Arial" font-size="18" font-weight="700" fill="#ffe7a0">VIKAS AI</text></svg>